<svg width="52" height="12" viewBox="0 0 52 12" fill="none" xmlns="http://www.w3.org/2000/svg">
<path d="M0.999756 4.93457C0.585542 4.93457 0.249756 5.27036 0.249756 5.68457C0.249756 6.09878 0.585542 6.43457 0.999756 6.43457V4.93457ZM51.5301 6.2149C51.823 5.92201 51.823 5.44713 51.5301 5.15424L46.7571 0.381269C46.4642 0.088376 45.9893 0.088376 45.6965 0.381269C45.4036 0.674163 45.4036 1.14904 45.6965 1.44193L49.9391 5.68457L45.6965 9.92721C45.4036 10.2201 45.4036 10.695 45.6965 10.9879C45.9893 11.2808 46.4642 11.2808 46.7571 10.9879L51.5301 6.2149ZM0.999756 6.43457H50.9998V4.93457H0.999756V6.43457Z" fill="black"/>
</svg>
