<svg width="48" height="49" viewBox="0 0 48 49" fill="none" xmlns="http://www.w3.org/2000/svg">
<g clip-path="url(#clip0_0_296)">
<path d="M24 5.03281C30.4125 5.03281 31.1719 5.06094 33.6938 5.17344C36.0375 5.27656 37.3031 5.67031 38.1469 5.99844C39.2625 6.42969 40.0688 6.95469 40.9031 7.78906C41.7469 8.63281 42.2625 9.42969 42.6938 10.5453C43.0219 11.3891 43.4156 12.6641 43.5188 14.9984C43.6313 17.5297 43.6594 18.2891 43.6594 24.6922C43.6594 31.1047 43.6313 31.8641 43.5188 34.3859C43.4156 36.7297 43.0219 37.9953 42.6938 38.8391C42.2625 39.9547 41.7375 40.7609 40.9031 41.5953C40.0594 42.4391 39.2625 42.9547 38.1469 43.3859C37.3031 43.7141 36.0281 44.1078 33.6938 44.2109C31.1625 44.3234 30.4031 44.3516 24 44.3516C17.5875 44.3516 16.8281 44.3234 14.3063 44.2109C11.9625 44.1078 10.6969 43.7141 9.85313 43.3859C8.7375 42.9547 7.93125 42.4297 7.09688 41.5953C6.25313 40.7516 5.7375 39.9547 5.30625 38.8391C4.97813 37.9953 4.58438 36.7203 4.48125 34.3859C4.36875 31.8547 4.34063 31.0953 4.34063 24.6922C4.34063 18.2797 4.36875 17.5203 4.48125 14.9984C4.58438 12.6547 4.97813 11.3891 5.30625 10.5453C5.7375 9.42969 6.2625 8.62344 7.09688 7.78906C7.94063 6.94531 8.7375 6.42969 9.85313 5.99844C10.6969 5.67031 11.9719 5.27656 14.3063 5.17344C16.8281 5.06094 17.5875 5.03281 24 5.03281ZM24 0.710938C17.4844 0.710938 16.6688 0.739062 14.1094 0.851562C11.5594 0.964063 9.80625 1.37656 8.2875 1.96719C6.70312 2.58594 5.3625 3.40156 4.03125 4.74219C2.69063 6.07344 1.875 7.41406 1.25625 8.98906C0.665625 10.5172 0.253125 12.2609 0.140625 14.8109C0.028125 17.3797 0 18.1953 0 24.7109C0 31.2266 0.028125 32.0422 0.140625 34.6016C0.253125 37.1516 0.665625 38.9047 1.25625 40.4234C1.875 42.0078 2.69063 43.3484 4.03125 44.6797C5.3625 46.0109 6.70313 46.8359 8.27813 47.4453C9.80625 48.0359 11.55 48.4484 14.1 48.5609C16.6594 48.6734 17.475 48.7016 23.9906 48.7016C30.5063 48.7016 31.3219 48.6734 33.8813 48.5609C36.4313 48.4484 38.1844 48.0359 39.7031 47.4453C41.2781 46.8359 42.6188 46.0109 43.95 44.6797C45.2812 43.3484 46.1063 42.0078 46.7156 40.4328C47.3063 38.9047 47.7188 37.1609 47.8313 34.6109C47.9438 32.0516 47.9719 31.2359 47.9719 24.7203C47.9719 18.2047 47.9438 17.3891 47.8313 14.8297C47.7188 12.2797 47.3063 10.5266 46.7156 9.00781C46.125 7.41406 45.3094 6.07344 43.9688 4.74219C42.6375 3.41094 41.2969 2.58594 39.7219 1.97656C38.1938 1.38594 36.45 0.973438 33.9 0.860938C31.3313 0.739063 30.5156 0.710938 24 0.710938Z" fill="black"/>
<path d="M24 12.3828C17.1938 12.3828 11.6719 17.9047 11.6719 24.7109C11.6719 31.5172 17.1938 37.0391 24 37.0391C30.8062 37.0391 36.3281 31.5172 36.3281 24.7109C36.3281 17.9047 30.8062 12.3828 24 12.3828ZM24 32.7078C19.5844 32.7078 16.0031 29.1266 16.0031 24.7109C16.0031 20.2953 19.5844 16.7141 24 16.7141C28.4156 16.7141 31.9969 20.2953 31.9969 24.7109C31.9969 29.1266 28.4156 32.7078 24 32.7078Z" fill="black"/>
<path d="M39.6937 11.8952C39.6937 13.489 38.4 14.7733 36.8156 14.7733C35.2219 14.7733 33.9375 13.4796 33.9375 11.8952C33.9375 10.3015 35.2313 9.01709 36.8156 9.01709C38.4 9.01709 39.6937 10.3108 39.6937 11.8952Z" fill="black"/>
</g>
<defs>
<clipPath id="clip0_0_296">
<rect width="48" height="48" fill="white" transform="translate(0 0.710938)"/>
</clipPath>
</defs>
</svg>
