<svg width="20" height="19" viewBox="0 0 20 19" fill="none" xmlns="http://www.w3.org/2000/svg">
<path d="M9.0487 1.61162C9.34805 0.690311 10.6515 0.69031 10.9508 1.61162L12.4694 6.28538C12.6033 6.69741 12.9872 6.97637 13.4205 6.97637H18.3347C19.3035 6.97637 19.7062 8.21598 18.9225 8.78538L14.9468 11.6739C14.5963 11.9286 14.4496 12.3799 14.5835 12.792L16.1021 17.4657C16.4015 18.387 15.347 19.1532 14.5633 18.5838L10.5875 15.6952C10.2371 15.4406 9.76246 15.4406 9.41197 15.6952L5.43623 18.5838C4.65252 19.1532 3.59804 18.387 3.89739 17.4657L5.41599 12.792C5.54986 12.3799 5.4032 11.9286 5.05272 11.6739L1.07698 8.78538C0.293263 8.21598 0.696038 6.97637 1.66476 6.97637H6.57905C7.01227 6.97637 7.39623 6.69741 7.5301 6.28538L9.0487 1.61162Z" fill="#FFD600"/>
</svg>
